<svg width="36" height="36" viewBox="0 0 36 36" fill="none" xmlns="http://www.w3.org/2000/svg">
<path d="M14.9909 0C6.72943 0 0 6.72943 0 14.9909C0 23.2525 6.72943 29.9819 14.9909 29.9819C18.5835 29.9819 21.8829 28.7061 24.4686 26.5884L33.4193 35.5391C33.5574 35.683 33.7229 35.7978 33.9059 35.877C34.089 35.9561 34.2861 35.9979 34.4855 35.9999C34.6849 36.002 34.8828 35.9642 35.0674 35.8888C35.2521 35.8134 35.4198 35.7019 35.5609 35.5609C35.7019 35.4198 35.8134 35.2521 35.8888 35.0674C35.9642 34.8828 36.002 34.6849 35.9999 34.4855C35.9979 34.2861 35.9561 34.089 35.877 33.9059C35.7978 33.7229 35.683 33.5574 35.5391 33.4193L26.5884 24.4686C28.7061 21.8829 29.9819 18.5835 29.9819 14.9909C29.9819 6.72943 23.2525 0 14.9909 0ZM14.9909 2.99819C21.6321 2.99819 26.9837 8.34977 26.9837 14.9909C26.9837 21.6321 21.6321 26.9837 14.9909 26.9837C8.34977 26.9837 2.99819 21.6321 2.99819 14.9909C2.99819 8.34977 8.34977 2.99819 14.9909 2.99819Z" fill="white"/>
</svg>
